<?xml version="1.0" standalone="no"?>
<!DOCTYPE svg PUBLIC "-//W3C//DTD SVG 20010904//EN"
 "http://www.w3.org/TR/2001/REC-SVG-20010904/DTD/svg10.dtd">
<svg version="1.0" xmlns="http://www.w3.org/2000/svg"
 width="192.000000pt" height="192.000000pt" viewBox="0 0 192.000000 192.000000"
 preserveAspectRatio="xMidYMid meet">
<metadata>
Created by potrace 1.14, written by Peter Selinger 2001-2017
</metadata>
<g transform="translate(0.000000,192.000000) scale(0.100000,-0.100000)"
fill="#000000" stroke="none">
<path d="M111 1902 c-6 -2 -19 -18 -28 -35 -13 -25 -19 -80 -26 -242 -9 -208
-9 -211 15 -286 19 -58 45 -105 109 -194 98 -138 132 -169 246 -227 66 -33 97
-43 136 -44 47 0 53 -3 75 -37 14 -21 27 -35 30 -32 3 2 -7 20 -22 39 -14 19
-26 43 -26 52 0 14 -3 15 -12 6 -44 -44 -263 55 -346 156 -67 82 -151 210
-171 259 -29 74 -32 114 -23 318 7 146 13 197 26 223 9 17 18 32 20 32 3 0 35
-16 73 -36 153 -82 320 -162 351 -169 29 -6 32 -10 32 -42 0 -49 12 -35 13 16
2 40 1 41 -30 41 -28 0 -72 20 -363 170 -16 8 -30 20 -30 25 0 11 -27 14 -49
7z"/>
<path d="M1720 1852 c-19 -9 -57 -27 -85 -40 -27 -13 -72 -32 -99 -41 -28 -10
-45 -20 -40 -24 9 -5 153 54 216 89 25 13 30 13 53 -2 14 -9 28 -28 31 -43 3
-14 15 -62 27 -106 15 -58 21 -113 21 -200 1 -189 -33 -278 -148 -388 -57 -54
-82 -70 -126 -83 -30 -8 -91 -26 -135 -40 -109 -33 -145 -32 -190 7 -19 17
-35 27 -35 21 0 -18 58 -59 93 -66 25 -5 61 2 128 24 51 16 99 30 105 30 34 0
116 48 168 98 47 46 57 52 51 32 -22 -75 36 45 77 160 26 73 35 234 18 326 -7
38 -14 80 -16 94 -3 24 -14 61 -38 123 -6 15 -16 27 -23 27 -6 0 -13 4 -15 9
-1 5 -19 1 -38 -7z"/>
<path d="M895 1807 c-45 -15 -98 -47 -91 -54 3 -3 20 4 38 15 68 41 155 44
226 9 25 -12 44 -27 44 -32 -1 -5 -22 -15 -47 -21 -26 -7 -54 -19 -63 -27 -16
-13 -41 -12 -52 3 -9 11 -93 39 -132 44 -32 4 -41 1 -67 -30 -17 -19 -31 -40
-31 -47 0 -6 14 5 31 26 26 32 33 36 46 25 9 -7 28 -18 42 -24 24 -10 25 -11
6 -17 -25 -9 -69 -72 -62 -89 3 -8 6 -6 6 5 1 12 6 16 14 11 6 -4 9 -4 6 0 -8
9 70 86 87 86 30 0 75 -23 70 -36 -8 -21 18 -17 39 6 26 29 79 24 83 -8 2 -12
7 -20 11 -18 12 8 12 -75 0 -90 -6 -7 -8 -17 -5 -22 7 -11 -21 -37 -49 -46
-12 -3 -29 -21 -39 -38 -11 -22 -12 -27 -2 -14 8 10 34 27 56 37 67 30 90 124
49 194 l-18 30 30 17 c29 17 29 17 46 -8 35 -55 29 -198 -12 -258 -19 -28 -21
-37 -10 -46 19 -16 33 -81 41 -195 4 -55 11 -111 15 -125 5 -17 7 -9 4 25 -3
28 -7 86 -11 130 -7 101 -10 126 -19 148 -5 11 -2 17 7 17 25 0 97 70 139 133
21 34 39 65 39 71 0 5 -13 -11 -29 -36 -42 -65 -124 -148 -147 -148 -15 0 -13
4 11 18 17 11 37 27 45 37 14 17 14 17 -7 7 -12 -7 -25 -17 -28 -22 -11 -17
-28 -11 -20 8 15 41 23 113 18 166 -5 47 -12 64 -46 102 -22 24 -57 54 -77 64
-51 26 -134 33 -185 17z"/>
<path d="M1423 1720 c-48 -21 -92 -60 -69 -60 13 0 94 48 121 72 15 13 -6 8
-52 -12z"/>
<path d="M700 1609 c-7 -24 -10 -68 -8 -96 3 -29 1 -53 -4 -53 -10 0 -98 120
-98 134 0 5 -3 7 -6 4 -10 -11 37 -90 81 -134 l44 -44 -23 -47 c-13 -27 -27
-64 -30 -83 -5 -24 2 -14 20 30 14 36 35 73 45 82 19 17 19 17 -1 55 -22 41
-25 85 -10 148 12 54 4 57 -10 4z"/>
<path d="M873 1584 c-8 -22 10 -49 33 -49 22 0 31 30 14 50 -16 20 -39 19 -47
-1z"/>
<path d="M993 1574 c-9 -24 10 -49 38 -49 20 0 24 5 24 30 0 25 -4 30 -28 33
-18 2 -29 -2 -34 -14z"/>
<path d="M775 1560 c-8 -13 22 -80 43 -96 9 -7 32 -15 50 -19 21 -4 37 -14 43
-28 7 -18 8 -17 3 9 -4 27 -1 35 25 53 l30 22 11 -21 c6 -11 16 -20 22 -20 6
0 4 8 -5 18 -10 10 -17 24 -17 31 0 15 -34 -1 -67 -32 -21 -18 -26 -19 -62 -7
-38 12 -64 47 -64 86 0 16 -4 18 -12 4z"/>
<path d="M961 1358 c-11 -17 -15 -18 -23 -7 -8 12 -9 12 -6 0 7 -24 26 -24 38
-1 15 29 8 35 -9 8z"/>
<path d="M642 1165 c-2 -172 19 -337 50 -380 68 -95 207 -215 249 -215 26 0
115 75 162 136 l42 54 27 -32 c32 -38 35 -50 12 -41 -13 5 -12 0 4 -18 12 -13
28 -33 37 -44 9 -11 13 -13 9 -5 -4 8 -14 23 -22 33 -8 9 -12 20 -9 23 3 3 21
-16 39 -42 18 -27 71 -88 118 -135 l86 -86 -40 -23 c-62 -35 -162 -119 -246
-205 -87 -89 -119 -114 -169 -131 -33 -11 -40 -10 -102 22 -52 26 -84 53 -145
120 -113 125 -144 155 -175 166 l-27 9 34 50 c18 28 39 69 45 92 6 23 22 77
35 120 13 43 23 90 23 105 -1 21 -2 22 -6 7 -3 -11 -20 -76 -39 -145 -37 -132
-69 -193 -109 -212 -32 -14 -32 -23 0 -26 14 -1 38 -8 54 -16 29 -15 111 -100
159 -165 15 -20 40 -48 57 -63 32 -29 134 -82 175 -92 29 -6 70 2 70 15 0 5
-8 6 -17 3 -14 -4 -14 -2 2 8 11 7 77 68 147 136 70 67 137 127 150 132 35 16
66 35 85 53 10 8 30 19 46 22 35 9 35 29 -3 45 -37 15 -140 117 -191 189 -22
31 -55 76 -74 101 -40 52 -40 53 -20 74 18 18 37 107 26 119 -5 4 -11 -12 -14
-37 -4 -24 -16 -64 -29 -88 -30 -58 -98 -139 -111 -131 -6 3 -7 1 -3 -5 4 -7
-11 -24 -36 -42 -31 -23 -49 -29 -68 -25 -38 10 -72 35 -66 50 2 7 -4 15 -14
18 -14 3 -17 1 -13 -12 11 -33 -116 116 -142 165 -26 52 -34 114 -48 379 -2
43 -4 34 -5 -30z"/>
<path d="M1273 1013 c9 -2 23 -2 30 0 6 3 -1 5 -18 5 -16 0 -22 -2 -12 -5z"/>
<path d="M1193 975 c0 -22 2 -30 4 -17 2 12 2 30 0 40 -3 9 -5 -1 -4 -23z"/>
<path d="M987 644 c-3 -4 -21 -10 -39 -15 -32 -8 -32 -9 6 -4 35 4 77 25 50
25 -6 0 -13 -3 -17 -6z"/>
<path d="M600 296 c0 -2 8 -10 18 -17 15 -13 16 -12 3 4 -13 16 -21 21 -21 13z"/>
</g>
</svg>
